<svg id="Capa_1" enable-background="new 0 0 512.332 512.332" height="512" viewBox="0 0 512.332 512.332" width="512" xmlns="http://www.w3.org/2000/svg"><g><g><g><g fill="#6f6571"><path d="m305.942 150.612c-6.261-7.702-10.689-16.717-12.989-26.373l-11.732-49.235c-.145-.607-.218-1.23-.218-1.854v-37.193h-49.7v37.193c0 .625-.073 1.247-.218 1.854l-11.732 49.235c-2.301 9.655-6.728 18.671-12.989 26.373-10.043 12.354-24.761 34.183-24.761 56.011l74.55 9 74.55-9c0-21.828-14.718-43.657-24.761-56.011z"/><path d="m323.382 396.559c-.64-5.121-.747-10.295-.318-15.438l7.41-72.346c.076-.914.133-1.83.172-2.747l-74.493-8-74.493 8c.038.917.095 1.832.172 2.747l7.41 72.346c.429 5.143.322 10.317-.318 15.438l-6.681 53.447c-.426 3.408-.64 6.84-.64 10.274v11.41c0 18.299 14.834 33.133 33.133 33.133h82.833c18.299 0 33.133-14.834 33.133-33.133v-11.41c0-3.435-.214-6.866-.64-10.274z"/></g></g><g fill="#5e5161"><path d="m307.703 206.624v4.628l23-2.174v-2.454c0-21.829-14.718-43.657-24.761-56.011-6.261-7.702-10.689-16.717-12.989-26.373l-11.732-49.235c-.145-.607-.218-1.23-.218-1.854v-37.194h-23v37.193c0 .625.073 1.247.218 1.854l11.732 49.235c2.301 9.655 6.728 18.671 12.989 26.373 10.043 12.354 24.761 34.183 24.761 56.012z"/><path d="m323.382 396.559c-.64-5.121-.747-10.295-.318-15.438l7.41-72.346c.129-1.542.191-3.088.211-4.635l-22.982-1.671v.804c0 1.837-.076 3.673-.229 5.503l-7.41 72.346c-.429 5.143-.322 10.317.318 15.438l6.681 53.447c.426 3.408.64 6.84.64 10.274v11.41c0 18.299-14.834 33.133-33.133 33.133h23c18.299 0 33.133-14.834 33.133-33.133v-11.41c0-3.435-.214-6.866-.64-10.274z"/></g><path d="m181.603 206.624h149.1v99.405h-149.1z" fill="#e55964"/><path d="m281.286 40.957h-50.266c-4.418 0-8-3.582-8-8v-9.133c0-8.837 7.163-16 16-16h34.267c8.837 0 16 7.163 16 16v9.133c-.001 4.418-3.582 8-8.001 8z" fill="#e55964"/><g fill="#db404f"><path d="m273.286 7.824h-23c8.836 0 16 7.163 16 16v9.133c0 4.418-3.582 8-8 8h23c4.418 0 8-3.582 8-8v-9.133c0-8.837-7.163-16-16-16z"/><path d="m307.703 206.624v96.648c0 .919-.019 1.838-.057 2.756h23c.038-.918.057-1.837.057-2.756v-96.648z"/></g></g><g><path d="m330.703 232.256c11.441.251 6.512-19.085 7.501-25.633-.001-23.322-14.379-45.905-26.442-60.742-12.946-13.398-18.061-55.484-23.259-72.673.001.001.001-26.545.001-26.545 8.557-3.789 8.765-14.695 8.282-22.84-.899-30.882-37.575-22.49-57.766-23.499-12.957-.001-23.499 10.541-23.499 23.499-.441 8.14-.306 19.056 8.283 22.84v26.546s-11.746 49.292-11.746 49.292c-8.637 29.417-38.871 48.416-37.952 84.123-.002-.001-.002 96.647-.002 96.647-.015 2.095.074 4.184.268 6.268 1.086 16.789 10.548 79.192 6.003 94.953-.514 4.11 2.401 7.859 6.512 8.372 21.296 3.1 1.921-87.129 2.972-99.337h58.795v25.629c0 4.142 3.358 7.5 7.5 7.5s7.5-3.358 7.5-7.5v-25.629h58.795c-.96 13.271-8.923 71.855-6.509 83.963.647 6.578 7.705 57.371 7.263 62.79 2.069 18.087-4.826 36.637-25.635 37.043h-41.415c-22.215-1.582-66.218 9.272-67.049-25.634-.502-10.653.796-24.769 2.404-35.336 1.404-9.654-13.863-11.523-14.884-1.86-5.897 33.61-5.857 75.493 38.114 77.829 20.655-.046 62.183.033 82.832 0 60.329-2.762 36.389-78.759 33.254-116.695-2.367-8.605 6.644-76.055 7.111-86.089.507-2.661.186-50.149.268-54.216.113-9.643-15.123-9.796-15 0 0-.001 0 43.204 0 43.204h-134.1v-84.405h134.1c.124 6.056-1.912 18.306 7.5 18.135zm-100.183-208.432c0-4.687 3.813-8.5 8.5-8.5h34.267c9.603.016 8.722 10.916 8.499 17.634.104 1.452-50.262.004-50.767.501-1.094.563-.243-9.423-.499-9.635zm-18.336 131.519c14.897-15.747 19.421-53.662 25.042-73.753 6.631-1.065 26.665 4.097 26.427-7.5.208-11.289-18.318-6.584-24.85-7.5v-18.133h34.7v25.633c.084 3.254 11.752 49.082 12.154 51.89 6.127 28.46 31.324 40.933 36.905 73.143h-58.909v-25.633c0-4.142-3.358-7.5-7.5-7.5s-7.5 3.358-7.5 7.5v25.633h-58.909c2.89-17.456 14.9-34.505 22.44-43.78z"/><path d="m296.786 239.757c0-4.142-3.358-7.5-7.5-7.5h-66.266c-4.142 0-7.5 3.358-7.5 7.5s3.358 7.5 7.5 7.5h66.267c4.141 0 7.499-3.358 7.499-7.5z"/><path d="m239.586 265.391c-9.721-.142-9.738 15.143.001 15-.001 0 33.133 0 33.133 0 4.142 0 7.5-3.358 7.5-7.5s-3.358-7.5-7.5-7.5z"/><path d="m289.286 479.19c9.712.142 9.745-15.143-.001-15h-66.266c-9.712-.142-9.745 15.143.001 15z"/></g></g></svg>