<svg id="Capa_1" enable-background="new 0 0 512 512" height="512" viewBox="0 0 512 512" width="512" xmlns="http://www.w3.org/2000/svg"><g><g><path d="m291.399 170.489h92.501c66.692 0 120.756 54.064 120.756 120.756 0 58.171-41.473 108.075-98.663 118.718l-47.047 8.755-19.933-51.754 55.879-34.141c8.385-5.123 13.499-14.241 13.499-24.067 0-15.577-12.627-28.204-28.204-28.204h-89.921z" fill="#fd7e42"/></g><g><g><path d="m440.499 184.556c25.041 22.126 40.838 54.475 40.838 90.518 0 58.171-41.473 108.075-98.663 118.717l-31.1 5.788 7.371 19.138 47.047-8.755c57.189-10.643 98.663-60.546 98.663-118.717.001-46.238-25.991-86.399-64.156-106.689z" fill="#fc5327"/></g></g><g><path d="m394.849 226.027c10.646 3.678 27.289-16.146 38.395-45.025-12.931-5.797-27.068-9.38-41.929-10.28-7.872 27.955-6.652 51.786 3.534 55.305z" fill="#fc5327"/></g><g><path d="m481.284 219.842c-25.671 17.682-41.19 38.709-35.066 48.233 5.785 8.996 28.924 4.674 54.006-9.336-3.957-14.192-10.443-27.328-18.94-38.897z" fill="#fc5327"/></g><g><path d="m499.553 325.936c-26.57-7.733-49.009-6.851-52.668 2.909-3.453 9.211 10.899 23.459 33.626 34.818 8.444-11.26 14.928-24.01 19.042-37.727z" fill="#fc5327"/></g><g><path d="m481.107 267.715c6.052-2.279 12.515-5.288 19.117-8.976-3.958-14.192-10.443-27.328-18.94-38.897-3.475 2.394-6.756 4.849-9.831 7.328 5.432 12.555 8.792 26.212 9.654 40.545z" fill="#ed4322"/></g><g><path d="m472.307 320.894c-4.01 9.768-9.26 18.926-15.59 27.251 5.917 5.288 14.088 10.666 23.795 15.518 8.443-11.26 14.927-24.01 19.041-37.727-9.911-2.884-19.245-4.568-27.246-5.042z" fill="#ed4322"/></g><g><path d="m325.094 352.497-103.283 21.282c-6.238 1.285-9.87 7.822-7.666 13.798 1.55 4.202 5.614 6.942 10.091 6.802l50.513-1.575c2.255-.07 3.119 2.911 1.176 4.057l-46.515 27.459c-9.463 5.586-4.099 20.128 6.725 18.232l53.204-9.324c2.222-.389 3.5 2.439 1.74 3.849l-39.436 31.604c-3.495 2.801-4.807 7.523-3.257 11.725 2.204 5.976 9.21 8.589 14.789 5.515l92.364-50.884c15.566-8.575 22.526-27.24 16.376-43.913l-5.853-15.866c-6.149-16.674-23.563-26.348-40.968-22.761z" fill="#fd7e42"/></g><g><path d="m371.916 391.124-5.852-15.866c-5.109-13.851-17.992-22.863-32.184-23.464l.756 2.05c6.15 16.673-.81 35.338-16.376 43.913l-80.932 44.586 52.012-9.116c2.222-.389 3.5 2.439 1.74 3.849l-39.436 31.604c-3.495 2.801-4.807 7.523-3.257 11.725 2.204 5.976 9.211 8.589 14.789 5.515l92.364-50.884c15.566-8.574 22.526-27.238 16.376-43.912z" fill="#fc5327"/></g><g><path d="m324.348 226.57c0 45.049-4.628 81.568-49.677 81.568s-205.147-36.519-205.147-81.568 160.098-81.568 205.146-81.568 49.678 36.52 49.678 81.568z" fill="#fd7e42"/></g><g><path d="m275.199 145.016c4.007 13.663 4.788 30.671 4.788 49.113 0 45.049-4.628 81.568-49.677 81.568-29.232 0-106.898-15.381-157.838-38.488 21.958 40.021 160.756 70.929 202.199 70.929 45.049 0 49.677-36.519 49.677-81.568 0-44.867-4.604-81.262-49.149-81.554z" fill="#fc5327"/></g><g><circle cx="156.842" cy="218.776" fill="#554e57" r="19.855"/></g><g><path d="m162.488 199.747c.531 1.791.826 3.683.826 5.646 0 10.966-8.889 19.855-19.855 19.855-1.963 0-3.855-.296-5.646-.826 2.434 8.213 10.026 14.209 19.029 14.209 10.966 0 19.855-8.89 19.855-19.855 0-9.002-5.996-16.595-14.209-19.029z" fill="#453e43"/></g><g><path d="m486.575 368.078c23.363-31.209 31.362-73.555 20.915-111.143-.017-.07-.02-.141-.04-.211-4.154-14.898-10.924-28.8-20.12-41.322-.171-.233-.355-.449-.547-.656-24.162-32.412-62.504-51.758-102.883-51.758h-62.071c-8.927-16.904-24.767-25.486-47.158-25.486-12.524 0-32.855 2.622-55.781 7.194-4.062.81-6.699 4.76-5.889 8.823.809 4.063 4.76 6.696 8.823 5.889 21.679-4.323 41.435-6.904 52.847-6.904 35.653 0 42.176 24.943 42.176 74.067s-6.523 74.067-42.176 74.067c-21.348 0-72.212-8.995-117.159-23.527-50.398-16.294-80.487-35.188-80.487-50.54 0-9.265 11.573-20.368 32.587-31.264 24.484-12.695 55.638-22.171 77.463-27.885 4.008-1.049 6.406-5.148 5.356-9.156-1.049-4.008-5.148-6.41-9.156-5.356-22.563 5.907-54.856 15.747-80.569 29.079-26.996 13.998-40.683 28.997-40.683 44.581 0 5.345 1.597 10.6 4.747 15.761-21.995-9.957-35.32-23.52-37.715-39.13-3.049-19.876 12.462-42.684 42.554-62.576 32.233-21.307 77.162-37.209 126.512-44.779 75.953-11.648 147.909-.666 179.053 27.333 3.081 2.769 7.823 2.517 10.592-.564 2.77-3.08 2.518-7.823-.563-10.593-34.838-31.32-109.948-43.492-191.356-31.004-41.675 6.392-80.469 18.582-111.778 34.93 15.72-13.288 33.626-26.052 53.209-37.562 66.247-38.938 137.155-55.371 176.452-40.889 3.886 1.433 8.199-.557 9.631-4.444 1.433-3.887-.557-8.199-4.444-9.632-43.956-16.197-118.239.299-189.24 42.032-44.872 26.374-82.398 59.331-105.665 92.798-24.429 35.138-30.46 67.118-16.982 90.048 11.501 19.567 35.918 29.891 69.053 29.891 10.583 0 22.059-1.055 34.284-3.197 11.977 5.626 26.147 11.094 42.53 16.391 46.958 15.182 98.792 24.255 121.774 24.255 14.017 0 25.45-3.384 34.248-10.042.344 10.456 2.977 16.993 3.16 17.451 1.64 4.093 5.975 5.525 9.802 4.055 3.827-1.587 5.642-5.975 4.055-9.802-.052-.126-4.607-11.993.027-29.25h16.604c-6.417 18.376-3.29 32.068-3.069 32.731 1.647 4.952 5.281 6.394 9.064 5.509 4.025-.982 6.491-5.04 5.509-9.064-.032-.132-2.746-12.697 4.633-29.176h16.506c-18.493 16.59-21.431 34.574-21.569 35.492-.616 4.097 2.201 7.946 6.298 8.561 3.71.548 7.364-1.87 8.528-6.273.206-.78 3.359-18.654 24.991-32.949 4.538 3.801 7.433 9.502 7.433 15.871 0 7.163-3.797 13.932-9.909 17.667l-37.779 23.083c-8.736-4.769-19.131-6.514-29.622-4.354l-103.282 21.283c-5.116 1.054-9.505 4.277-12.042 8.844-2.537 4.566-2.955 9.996-1.147 14.896 2.671 7.241 9.672 11.948 17.361 11.704l29.779-.928-28.651 16.913c-7.353 4.34-10.424 12.966-7.469 20.977 2.954 8.011 10.89 12.579 19.302 11.102l32.771-5.743-23.249 18.632c-6.023 4.826-8.274 12.933-5.604 20.174 1.808 4.901 5.651 8.759 10.546 10.583 5.047 1.811 10.013 1.446 14.9-1.094l44.935-24.755c3.628-1.999 4.949-6.561 2.95-10.189-2-3.629-6.562-4.948-10.189-2.95l-44.935 24.756c-2.649 1.46-6.185-2.445-3.222-4.818l39.436-31.604c3.452-2.766 4.59-7.513 2.768-11.543-1.823-4.031-6.142-6.313-10.493-5.547l-53.204 9.324c-2.978-.562-3.517-2.023-1.617-4.384l46.515-27.458c3.808-2.248 5.608-6.785 4.377-11.033-1.232-4.247-5.179-7.1-9.599-6.981l-50.513 1.574c-3.816.165-3.618-5.15-.678-5.756l103.283-21.283c13.882-2.858 27.515 4.715 32.419 18.01l5.852 15.867c4.905 13.296-.545 27.909-12.958 34.748l-15.759 8.682c-3.628 1.999-4.949 6.561-2.95 10.189 1.998 3.628 6.56 4.949 10.189 2.95l15.759-8.682c8.042-4.431 14.161-11.002 17.981-18.646l30.225-5.624c32.591-6.065 60.381-24.157 79.139-49.164.023-.032.047-.064.068-.097zm-466.612-127.38c-4.724-8.036-5.974-17.753-4.201-28.55 6.685 22.118 29.21 40.075 63.735 50.97-29.121.632-50.583-7.191-59.534-22.42zm377.008-61.95c4.203.485 8.385 1.205 12.508 2.155 4.781 1.108 9.444 2.525 13.973 4.219-10.799 24.761-22.418 33.88-25.735 33.879-.16 0-.3-.021-.42-.063-2.405-.831-6.503-14.387-.326-40.19zm7.65 223.84-23.059 4.291c.444-6.051-.373-12.289-2.609-18.35l-5.852-15.867c-1.812-4.912-4.409-9.306-7.598-13.094l33.299-20.345c10.541-6.44 17.089-18.115 17.089-30.468 0-19.688-16.017-35.705-35.705-35.705h-52.17c3.065-13.007 3.832-28.392 3.832-46.48 0-19.068-.843-35.141-4.342-48.581h54.267c-5.203 23.803-5.083 49.7 10.626 55.127 1.717.593 3.446.876 5.184.876 14.484-.003 29.369-19.656 39.527-42.699 12.802 6.843 24.141 16.072 33.423 27.091-3.171 2.408-6.214 4.873-9.059 7.388-3.104 2.743-3.396 7.484-.653 10.587 2.743 3.104 7.484 3.395 10.587.653 2.517-2.225 5.197-4.419 8.009-6.56 4.871 7.627 8.856 15.872 11.805 24.591-23.359 11.875-37.337 11.084-38.695 8.975-.11-.172-.304-.994.125-2.702 1.007-4.018-1.433-8.093-5.451-9.1-4.019-1.005-8.092 1.433-9.1 5.451-1.737 6.928.025 11.691 1.809 14.466 3.73 5.801 10.273 8.148 18.215 8.148 10.92-.001 24.479-4.443 36.992-10.448 1.333 6.936 2.039 14.093 2.039 21.412 0 8.746-1.006 17.292-2.908 25.522-23.738-5.716-48.641-5.873-54.386 9.446-5.196 13.859 10.454 28.873 29.13 39.752-16.285 18.548-38.632 31.833-64.371 36.623zm73.573-48.634c-7.895-4.419-14.499-9.198-18.95-13.75-9.397-9.61-2.181-11.951 8.557-11.951 6.379 0 13.97.999 22.082 2.895-3.02 8.03-6.931 15.66-11.689 22.806z"/><path d="m129.486 218.776c0 15.084 12.272 27.356 27.356 27.356s27.356-12.272 27.356-27.356-12.272-27.356-27.356-27.356-27.356 12.272-27.356 27.356zm39.711 0c0 6.812-5.542 12.355-12.355 12.355s-12.355-5.542-12.355-12.355 5.542-12.355 12.355-12.355 12.355 5.543 12.355 12.355z"/></g></g></svg>